<svg xmlns="http://www.w3.org/2000/svg" viewBox="0 0 466 459.98"><defs><style>.cls-1{fill:#1a1a1a;}</style></defs><title>Ativo 4</title><g id="Camada_2" data-name="Camada 2"><g id="Camada_1-2" data-name="Camada 1"><path class="cls-1" d="M268.31,246.19a11.49,11.49,0,0,0-8.18-3.51H231.26v69.13h28.49a11.62,11.62,0,0,0,8.51-3.87l2.08-2.27c13.53-14.77,13-44.25-1-58.41Z"/><polygon class="cls-1" points="166.07 185.21 159.31 215.37 172.3 215.37 166.07 185.21"/><path class="cls-1" d="M256.29,213.33l1.53-1.41c9.27-8.54,8.86-35.39-.67-43.52l-.78-.67a8.11,8.11,0,0,0-5.26-1.86H231.26v49.5h19.56A8.11,8.11,0,0,0,256.29,213.33Z"/><path class="cls-1" d="M366.26,165.87h-1c-8.33,0-15.6,3.68-19.95,10.08a11.58,11.58,0,0,0-2.05,6.51V295.22a11.56,11.56,0,0,0,2.05,6.51c4.35,6.4,11.62,10.08,19.95,10.08h.48c8.41,0,16.26-3.86,20.47-10.08a11.58,11.58,0,0,0,2.05-6.51V182.46a11.58,11.58,0,0,0-2.05-6.51C381.87,169.55,374.6,165.87,366.26,165.87Z"/><path class="cls-1" d="M233.26,26.59C68.6,65.51,14.44,121.8,21,238.84c4.59,81.67,98.37,224.07,212.59,197.67,119.33-27.59,212-106,211.91-197.67C445.38,94.42,373.36-6.52,233.26,26.59Zm-12,135c0-2.36,2.24-4.27,5-4.27h24.85a18.93,18.93,0,0,1,12.33,4.36l.78.66c13.32,11.37,13.86,43.45.94,55.36l-1.53,1.41a19,19,0,0,1-12.81,4.78H226.26c-2.76,0-5-1.91-5-4.27Zm-72.91,57.23,13-58a4.86,4.86,0,0,1,4.91-3.47h0a4.85,4.85,0,0,1,4.89,3.53l12,58a3.84,3.84,0,0,1-1.1,3.48,5.37,5.37,0,0,1-3.83,1.53h-25a5.37,5.37,0,0,1-3.85-1.55A3.82,3.82,0,0,1,148.35,218.84Zm-31.09,26.4h-39v70.83c0,2.36-2.24,4.27-5,4.27s-5-1.91-5-4.27V241c0-2.35,2.24-4.26,5-4.26h44c2.76,0,5,1.91,5,4.26S120,245.24,117.26,245.24Zm1-21.33h-45c-2.76,0-5-1.91-5-4.27v-58c0-2.36,2.24-4.27,5-4.27h65c2.76,0,5,1.91,5,4.27s-2.24,4.26-5,4.26h-60v49.5h40c2.76,0,5,1.91,5,4.27S121,223.91,118.26,223.91Zm80,96.34a5.63,5.63,0,0,1-1,.09,4.89,4.89,0,0,1-4.9-3.41l-17.18-71.69H154.39l-16.22,71.64c-.52,2.32-3.14,3.83-5.86,3.38s-4.48-2.68-4-5l17-75.1a4.88,4.88,0,0,1,4.91-3.45h29a4.86,4.86,0,0,1,4.9,3.41l18,75.1C202.71,317.53,201,319.78,198.26,320.25Zm80-9.33-2.08,2.28a22.24,22.24,0,0,1-16.39,7.14H226.26c-2.76,0-5-1.91-5-4.27V238.41c0-2.35,2.24-4.26,5-4.26h33.87A22.33,22.33,0,0,1,276,240.69l1.06,1.06C294.23,259.18,294.83,292.79,278.22,310.92Zm37,5.15c0,2.36-2.24,4.27-5,4.27s-5-1.91-5-4.27V161.61c0-2.36,2.24-4.27,5-4.27s5,1.91,5,4.27ZM394.87,306c-6,8.84-17.16,14.33-29.13,14.33h-.48c-11.82,0-22.51-5.36-28.6-14.33a19.19,19.19,0,0,1-3.4-10.79V182.46a19.19,19.19,0,0,1,3.4-10.79c6.09-9,16.78-14.33,28.6-14.33h1c11.83,0,22.52,5.36,28.61,14.33a19.22,19.22,0,0,1,3.39,10.79V295.22A19.22,19.22,0,0,1,394.87,306Z"/><path class="cls-1" d="M268.31,246.19a11.49,11.49,0,0,0-8.18-3.51H231.26v69.13h28.49a11.62,11.62,0,0,0,8.51-3.87l2.08-2.27c13.53-14.77,13-44.25-1-58.41Z"/><polygon class="cls-1" points="166.07 185.21 159.31 215.37 172.3 215.37 166.07 185.21"/><path class="cls-1" d="M256.29,213.33l1.53-1.41c9.27-8.54,8.86-35.39-.67-43.52l-.78-.67a8.11,8.11,0,0,0-5.26-1.86H231.26v49.5h19.56A8.11,8.11,0,0,0,256.29,213.33Z"/><path class="cls-1" d="M366.26,165.87h-1c-8.33,0-15.6,3.68-19.95,10.08a11.58,11.58,0,0,0-2.05,6.51V295.22a11.56,11.56,0,0,0,2.05,6.51c4.35,6.4,11.62,10.08,19.95,10.08h.48c8.41,0,16.26-3.86,20.47-10.08a11.58,11.58,0,0,0,2.05-6.51V182.46a11.58,11.58,0,0,0-2.05-6.51C381.87,169.55,374.6,165.87,366.26,165.87Z"/><path class="cls-1" d="M233.26,26.59C68.6,65.51,14.44,121.8,21,238.84c4.59,81.67,98.37,224.07,212.59,197.67,119.33-27.59,212-106,211.91-197.67C445.38,94.42,373.36-6.52,233.26,26.59Zm-12,135c0-2.36,2.24-4.27,5-4.27h24.85a18.93,18.93,0,0,1,12.33,4.36l.78.66c13.32,11.37,13.86,43.45.94,55.36l-1.53,1.41a19,19,0,0,1-12.81,4.78H226.26c-2.76,0-5-1.91-5-4.27Zm-72.91,57.23,13-58a4.86,4.86,0,0,1,4.91-3.47h0a4.85,4.85,0,0,1,4.89,3.53l12,58a3.84,3.84,0,0,1-1.1,3.48,5.37,5.37,0,0,1-3.83,1.53h-25a5.37,5.37,0,0,1-3.85-1.55A3.82,3.82,0,0,1,148.35,218.84Zm-31.09,26.4h-39v70.83c0,2.36-2.24,4.27-5,4.27s-5-1.91-5-4.27V241c0-2.35,2.24-4.26,5-4.26h44c2.76,0,5,1.91,5,4.26S120,245.24,117.26,245.24Zm1-21.33h-45c-2.76,0-5-1.91-5-4.27v-58c0-2.36,2.24-4.27,5-4.27h65c2.76,0,5,1.91,5,4.27s-2.24,4.26-5,4.26h-60v49.5h40c2.76,0,5,1.91,5,4.27S121,223.91,118.26,223.91Zm80,96.34a5.63,5.63,0,0,1-1,.09,4.89,4.89,0,0,1-4.9-3.41l-17.18-71.69H154.39l-16.22,71.64c-.52,2.32-3.14,3.83-5.86,3.38s-4.48-2.68-4-5l17-75.1a4.88,4.88,0,0,1,4.91-3.45h29a4.86,4.86,0,0,1,4.9,3.41l18,75.1C202.71,317.53,201,319.78,198.26,320.25Zm80-9.33-2.08,2.28a22.24,22.24,0,0,1-16.39,7.14H226.26c-2.76,0-5-1.91-5-4.27V238.41c0-2.35,2.24-4.26,5-4.26h33.87A22.33,22.33,0,0,1,276,240.69l1.06,1.06C294.23,259.18,294.83,292.79,278.22,310.92Zm37,5.15c0,2.36-2.24,4.27-5,4.27s-5-1.91-5-4.27V161.61c0-2.36,2.24-4.27,5-4.27s5,1.91,5,4.27ZM394.87,306c-6,8.84-17.16,14.33-29.13,14.33h-.48c-11.82,0-22.51-5.36-28.6-14.33a19.19,19.19,0,0,1-3.4-10.79V182.46a19.19,19.19,0,0,1,3.4-10.79c6.09-9,16.78-14.33,28.6-14.33h1c11.83,0,22.52,5.36,28.61,14.33a19.22,19.22,0,0,1,3.39,10.79V295.22A19.22,19.22,0,0,1,394.87,306Z"/><path class="cls-1" d="M203.82,460C171,460,138,448.11,107.1,424.9c-28.72-21.56-55.41-53-75.16-88.63C13.59,303.18,2.16,268,.57,239.77c-1.84-32.86.76-60.47,8-84.41A151.83,151.83,0,0,1,47,90.67C82.36,55,141.19,28.39,232.13,6.9,263.84-.59,293.42-2,320,2.75A151.21,151.21,0,0,1,388.12,33c50.14,39.63,77.8,113,77.88,206.46,0,48.73-23.22,95.59-67.28,135.53-41.56,37.67-99.79,66.59-164,81.42A137.22,137.22,0,0,1,203.82,460ZM233.28,11.77l1.15,4.86c-89,21.05-146.35,46.81-180.35,81.09C20.39,131.67,7,175.31,10.56,239.2c2.9,51.7,42.05,132.3,102.54,177.7,38.25,28.7,79.54,39,119.41,29.79C364.18,416.25,456.08,331.05,456,239.49c-.08-90.39-26.39-160.93-74.08-198.63-38.18-30.18-87.8-38.33-147.49-24.23Z"/></g></g></svg>